<svg width="35" height="26" class="featureIcon" xmlns="http://www.w3.org/2000/svg" style="color: rgb(172, 20, 86); fill: rgb(172, 20, 86);">
                <path
                    d="M7.5 0c-.219.29-.375.631-.45 1H2a1 1 0 00-.993.884L1 2v22a1 1 0 00.883.993L2 25h5.05c.075.37.232.71.45 1.001H2a2 2 0 01-2-2V2a2 2 0 012-2zM33 0a2 2 0 012 2v22a2 2 0 01-2 2H11a2 2 0 01-2-2V2a2 2 0 012-2h22zm0 1H11a1 1 0 00-.993.883L10 2v22a1 1 0 00.883.993L11 25h22a1 1 0 00.993-.883L34 24V2a1 1 0 00-.883-.993L33 1z">
                </path>
                <path
                    d="M26.86 20v-1.68H19.7l4.12-3.68a19.474 19.474 0 001.62-1.61c.427-.487.74-.973.94-1.46.2-.487.3-1.017.3-1.59 0-.813-.2-1.537-.6-2.17a4.138 4.138 0 00-1.66-1.49c-.707-.36-1.527-.54-2.46-.54-.907 0-1.707.173-2.4.52a4.65 4.65 0 00-1.7 1.42c-.44.6-.727 1.287-.86 2.06h1.88a2.75 2.75 0 01.99-1.66c.527-.427 1.21-.64 2.05-.64.88 0 1.577.243 2.09.73a2.37 2.37 0 01.77 1.79c0 .387-.067.75-.2 1.09-.133.34-.36.703-.68 1.09-.32.387-.76.827-1.32 1.32l-5.56 5V20h9.84z">
                </path>
            </svg>