<svg width="43" height="26" class="featureIcon" xmlns="http://www.w3.org/2000/svg" style="color: rgb(7, 107, 193); fill: rgb(7, 107, 193);">
                <path
                    d="M30.416 2c2.219 0 3.887.473 5.562 1.39 1.674.918 2.677 2.208 3.627 3.872C40.555 8.926 41 10.74 41 13c0 2.261-.446 4.088-1.395 5.752-.95 1.664-1.953 2.955-3.627 3.872-1.675.917-3.343 1.376-5.562 1.376H22V2h8.416zM9.095 2c2.294 0 4.22.519 5.779 1.556 1.558 1.038 2.515 2.554 2.873 4.548h-4.294c-.21-.846-.695-1.475-1.453-1.888-.758-.413-1.716-.62-2.874-.62-1.284 0-2.294.227-3.031.68-.737.453-1.106 1.083-1.106 1.889 0 .725.28 1.29.837 1.692.558.403 1.669.735 3.332.997l2.368.363c4.316.665 6.474 2.71 6.474 6.135 0 1.41-.368 2.614-1.105 3.61-.737.998-1.753 1.754-3.048 2.267-1.294.514-2.773.771-4.436.771-2.569 0-4.658-.564-6.269-1.692-1.61-1.129-2.658-2.7-3.142-4.715h4.295c.273.847.858 1.527 1.752 2.04.895.514 1.995.77 3.3.77 1.242 0 2.269-.226 3.08-.68.81-.452 1.215-1.112 1.215-1.978 0-.504-.116-.942-.347-1.315-.232-.373-.663-.695-1.295-.967-.632-.272-1.547-.499-2.747-.68l-2.464-.393c-2.042-.322-3.573-.947-4.594-1.874C1.174 11.59.663 10.26.663 8.527c0-1.33.374-2.483 1.121-3.46.748-.977 1.758-1.732 3.032-2.266C6.089 2.267 7.516 2 9.095 2zm20.871 3.536H26v14.656h3.966c1.366 0 2.576-.288 3.632-.864 1.056-.576 1.888-1.408 2.496-2.496.608-1.088.906-2.275.906-3.832s-.298-3.016-.906-4.104c-.608-1.088-1.44-1.92-2.496-2.496-1.056-.576-2.266-.864-3.632-.864z"
                    fill-rule="nonzero"></path>
            </svg>