        <svg width="54" height="26" class="featureIcon" xmlns="http://www.w3.org/2000/svg" style="color: rgb(229, 9, 20); fill: rgb(229, 9, 20);">
                        <path
                            d="M42 1c6.627 0 12 5.373 12 12s-5.373 12-12 12H12C5.373 25 0 19.627 0 13S5.373 1 12 1h30zm0 1H12C5.925 2 1 6.925 1 13c0 5.979 4.77 10.843 10.712 10.996L12 24h30c6.075 0 11-4.925 11-11 0-5.979-4.77-10.843-10.712-10.996L42 2z">
                        </path>
                        <path
                            d="M12 18V8h2v4h5V8h2v10h-2v-4h-5v4h-2zm11 0V8h3.779c.996 0 1.87.206 2.622.618a4.47 4.47 0 011.767 1.738c.426.747.696 1.629.696 2.644 0 1.015-.27 1.897-.696 2.644a4.47 4.47 0 01-1.767 1.738c-.752.412-1.626.618-2.622.618H23zm2-2h1.664c.613 0 1.156-.118 1.63-.354a2.694 2.694 0 001.121-1.022c.273-.445.41-.986.41-1.624 0-.638-.137-1.179-.41-1.624a2.694 2.694 0 00-1.12-1.022c-.475-.236-1.018-.354-1.631-.354H25v6zm9 2V8h4.08c1.227 0 2.182.292 2.867.876.685.585 1.027 1.549 1.027 2.545 0 1.453-.567 2.588-1.988 3.112L42.42 18h-2.686l-1.783-3H36v3h-2zm2-5h1.93c.747 0 1.296-.13 1.645-.39.35-.26.525-.642.525-1.144 0-.503-.175-.872-.525-1.11-.35-.237-.898-.356-1.645-.356H36v3z">
                        </path>
                    </svg>