<svg width="53" height="26" class="featureIcon" xmlns="http://www.w3.org/2000/svg" style="color: rgb(229, 9, 20); fill: rgb(229, 9, 20);">
                <path
                    d="M51 0a2 2 0 012 2v22a2 2 0 01-2 2H29a2 2 0 01-2-2V2a2 2 0 012-2h22zm0 1H29a1 1 0 00-.993.883L28 2v22a1 1 0 00.883.993L29 25h22a1 1 0 00.993-.883L52 24V2a1 1 0 00-.883-.993L51 1z">
                </path>
                <path
                    d="M43.36 20v-3.44h2.18v-1.62h-2.18V6.08H41.6l-7.14 9.06v1.42h7.04V20h1.86zm-1.86-5.06h-5l5-6.34v6.34zM7.5 0c-.219.29-.375.631-.45 1H2a1 1 0 00-.993.884L1 2v22a1 1 0 00.883.993L2 25h5.05c.075.37.232.71.45 1.001H2a2 2 0 01-2-2V2a2 2 0 012-2zM16.5 0c-.219.29-.375.631-.45 1H11a1 1 0 00-.993.884L10 2v22a1 1 0 00.883.993L11 25h5.05c.075.37.232.71.45 1.001H11a2 2 0 01-2-2V2a2 2 0 012-2zM25.5 0c-.219.29-.375.631-.45 1H20a1 1 0 00-.993.884L19 2v22a1 1 0 00.883.993L20 25h5.05c.075.37.232.71.45 1.001H20a2 2 0 01-2-2V2a2 2 0 012-2z">
                </path>
            </svg>